<svg width="404" height="284" viewBox="0 0 404 284" fill="none" xmlns="http://www.w3.org/2000/svg">
<path d="M1.59194 1.91526L1.59185 1.9151L0.834633 0.5H35.298H70.3296L117.58 71.2716L164.793 141.988L117.581 212.716L70.3316 283.5H35.299H0.834658L1.64384 281.988L1.64391 281.988C1.7135 281.858 2.09987 281.249 2.8011 280.17C3.4928 279.105 4.47351 277.609 5.71133 275.73C8.18683 271.971 11.6889 266.68 15.9601 260.247C24.5022 247.379 36.1194 229.939 48.7498 211.034L94.6778 142.286L94.8633 142.008L94.6778 141.73L48.6978 72.8783C36.0535 53.9441 24.4293 36.4893 15.8871 23.6201C11.616 17.1855 8.11558 11.8976 5.64356 8.14467C4.40748 6.26808 3.42893 4.77587 2.73983 3.71614C2.04096 2.6414 1.65794 2.03872 1.59194 1.91526ZM189.819 142.283L190.004 142.006L189.819 141.729L144.329 73.4757C119.307 35.9343 98.034 3.98713 97.0499 2.47701L95.7624 0.50013L130.205 0.505001L165.303 0.509961L259.919 142.283L354.165 283.5H319.586H284.34L255.237 239.751C247.193 227.658 239.805 216.661 234.383 208.684C231.673 204.696 229.452 201.461 227.887 199.222C227.104 198.103 226.483 197.23 226.046 196.635C225.828 196.338 225.651 196.106 225.522 195.945C225.458 195.866 225.399 195.797 225.349 195.744C225.325 195.718 225.294 195.686 225.258 195.657C225.251 195.651 225.242 195.644 225.232 195.637C225.216 195.625 225.197 195.611 225.174 195.598C225.148 195.583 225.06 195.534 224.936 195.529L224.935 195.528C224.801 195.523 224.703 195.572 224.673 195.587C224.631 195.609 224.599 195.633 224.58 195.648C224.541 195.678 224.508 195.711 224.483 195.736C224.432 195.789 224.372 195.859 224.308 195.937C224.178 196.096 224.001 196.327 223.782 196.622C223.343 197.214 222.72 198.084 221.935 199.201C220.364 201.434 218.137 204.663 215.418 208.648C209.979 216.617 202.568 227.612 194.498 239.71L165.302 283.474L130.205 283.487L95.7611 283.5L97.0453 281.522C98.0252 280.014 119.299 248.069 144.323 210.53L189.819 142.283ZM276.811 129.5L261.271 106.222L246.101 83.5H324.118H402.57V106.5V129.5H339.807H276.811ZM310.487 180.172C303.059 168.911 296.161 158.365 295.154 156.729L293.781 154.5H347.978H402.57V177.5V200.499L363.321 200.457L323.839 200.413L310.487 180.172Z"/>
</svg>
