<svg width="320" height="322" viewBox="0 0 320 322" fill="none" xmlns="http://www.w3.org/2000/svg">
<path fill-rule="evenodd" clip-rule="evenodd" d="M88.5458 18.4959C96.309 8.26246 113.514 2.5572 143.007 0.437163C161.305 -0.878029 189.692 0.894461 202.415 4.14494C211.675 6.51192 217.561 9.88953 224.574 16.8606C230.669 22.918 233.838 28.2995 235.465 35.3556C235.988 37.6229 236.38 56.4773 236.393 80.0163C236.417 123.438 236.168 126.375 231.745 135.045C229.029 140.37 221.716 147.822 216.332 150.752C207.638 155.484 203.257 155.858 156.326 155.876C119.634 155.889 112.543 156.107 108.309 157.35C93.0832 161.823 81.4531 172.618 75.1461 188.136C73.3919 192.452 73.1486 195.227 72.7206 215.798L72.245 238.662L59.4406 238.922C33.3261 239.452 23.271 235.285 13.2406 219.778C4.39643 206.105 -1.70577 172.742 0.427074 149.718C1.66818 136.322 5.27078 119.918 8.80205 111.586C14.093 99.1003 24.6877 89.2016 37.4902 84.7841C41.5739 83.3747 48.3237 83.1552 100.598 82.7364L159.132 82.2662V77.236V72.2057L120.887 71.967L82.6412 71.7282L82.9951 50.4739C83.3802 27.3209 83.8338 24.7088 88.5458 18.4959ZM130.322 37.6768C130.322 32.9045 127.724 28.4861 123.076 25.3545C116.944 21.2214 108.434 23.1677 103.725 29.7793C100.797 33.8932 100.643 42.0825 103.425 45.8415C112.556 58.1776 130.322 52.7851 130.322 37.6768ZM231.077 302.784C223.314 313.017 206.109 318.723 176.617 320.843C158.318 322.158 129.931 320.385 117.208 317.135C107.949 314.768 102.062 311.39 95.049 304.419C88.9542 298.362 85.7851 292.98 84.158 285.924C83.6348 283.657 83.2434 264.802 83.2297 241.263C83.2059 197.842 83.4547 194.904 87.8777 186.235C90.594 180.91 97.9072 173.458 103.291 170.528C111.985 165.795 116.366 165.421 163.297 165.404C199.989 165.391 207.08 165.173 211.314 163.93C226.54 159.457 238.17 148.661 244.477 133.144C246.231 128.828 246.474 126.052 246.902 105.482L247.378 82.6173L260.182 82.3576C286.297 81.828 296.352 85.9949 306.382 101.502C315.227 115.175 321.329 148.538 319.196 171.562C317.955 184.958 314.352 201.361 310.821 209.694C305.53 222.179 294.935 232.078 282.133 236.496C278.049 237.905 271.299 238.125 219.026 238.543L160.491 239.014V244.044V249.074L198.736 249.313L236.982 249.552L236.628 270.806C236.243 293.959 235.789 296.571 231.077 302.784ZM189.301 283.603C189.301 288.375 191.899 292.794 196.547 295.925C202.679 300.058 211.189 298.112 215.898 291.5C218.826 287.387 218.98 279.197 216.198 275.438C207.067 263.102 189.301 268.495 189.301 283.603Z" fill="#D9D9D9"/>
</svg>
