<svg width="512" height="500" viewBox="0 0 512 500" fill="none" xmlns="http://www.w3.org/2000/svg">
<path fill-rule="evenodd" clip-rule="evenodd" d="M236 1.12405C220.64 2.15305 200.348 5.79505 184.398 10.3851C94.215 36.3431 24.071 112.149 5.431 203.8C-8.168 270.664 4.559 339.283 40.824 394.631C66.33 433.557 98.758 463.24 137.615 483.23C151.747 490.499 171.702 498.609 177.896 499.599C183.689 500.526 188.788 497.735 191.179 492.328C192.956 488.311 193.04 486.326 192.396 463.725L191.703 439.439L183.101 440.771C173.44 442.267 157.467 441.73 144.528 439.474C134.048 437.647 123.394 432.352 116.685 425.636C111.378 420.323 110.009 418.016 103.057 402.674C96.777 388.813 89.61 379.613 79.926 372.981C73.251 368.41 67.771 362.425 68.204 360.178C68.78 357.186 73.033 355.858 80.319 356.394C94.388 357.428 109.118 367.703 119.612 383.803C126.798 394.827 133.886 401.678 142.557 405.98C148.798 409.077 150.511 409.463 159.5 409.798C169.833 410.183 180.182 408.623 188.582 405.416C192.731 403.831 192.866 403.633 194.389 396.89C196.326 388.31 199.984 380.465 205.014 374.101L208.879 369.212L200.689 368.06C174.317 364.35 155.537 357.914 138.023 346.584C115.098 331.753 101.487 308.664 94.94 273.5C92.903 262.556 92.583 234.594 94.377 224.305C97.284 207.639 104.157 192.356 114.403 179.778L118.879 174.284L116.939 168.051C111.711 151.253 112.704 130.941 119.74 110.75C121.507 105.679 121.939 105.474 130 105.89C141.78 106.497 167.074 116.651 184.279 127.679L191.443 132.271L196.971 131.188C200.012 130.593 205.742 129.405 209.706 128.549C236.802 122.694 275.198 122.694 302.294 128.549C306.258 129.405 311.975 130.577 315 131.153L320.5 132.2L330 126.423C352.638 112.658 378.44 103.418 387.484 105.837C390.054 106.525 390.776 107.548 392.751 113.303C397.053 125.845 398.259 134.308 397.754 148.431C397.414 157.943 396.72 163.24 395.204 167.892L393.121 174.284L397.495 179.653C406.383 190.564 413.032 204.056 416.706 218.637C418.937 227.494 419.183 260.318 417.112 273C413.879 292.802 405.673 313.585 396.12 326.167C379.6 347.925 349.676 362.769 311.803 367.992L303.105 369.192L306.977 374.091C311.744 380.12 315.47 387.848 317.626 396.176C318.989 401.439 319.328 409.884 319.647 446.5C320.073 495.461 320.061 495.378 326.757 498.555C331.379 500.748 335.124 500.076 349.726 494.436C423.474 465.952 481.738 401.198 502.999 324.091C517.131 272.843 514.142 213.336 494.957 163.987C477.842 119.96 447.458 79.7651 410.162 51.8101C369.719 21.4961 323.661 4.39105 273.517 1.06105C256.002 -0.101947 254.267 -0.0989469 236 1.12405Z" fill="black"/>
</svg>
