<svg width="331" height="330" viewBox="0 0 331 330" fill="none" xmlns="http://www.w3.org/2000/svg">
<path fill-rule="evenodd" clip-rule="evenodd" d="M161.8 1.59652C161.028 2.36852 158.633 5.96052 156.479 9.57852C153.723 14.2075 151.961 16.1615 150.533 16.1745C149.347 16.1845 145.817 13.4765 142.033 9.65352C133.054 0.58152 131.689 0.836519 127.11 12.4385C124.881 18.0845 123 21.3935 121.803 21.7735C120.561 22.1675 117.516 20.6805 112.592 17.2765C105.142 12.1265 102.1 11.1755 100.331 13.4415C99.7941 14.1295 98.7731 18.2915 98.0621 22.6915C96.1301 34.6425 95.3941 35.0515 84.5621 30.1915C72.5191 24.7885 70.4211 26.3375 71.5431 39.8075C72.2251 47.9905 72.1911 48.1755 69.7941 49.2675C67.9131 50.1245 65.9191 50.0145 61.1261 48.7865C47.5761 45.3155 46.0531 46.5635 48.5901 59.0615C49.5781 63.9255 50.1021 68.6445 49.7551 69.5485C49.2301 70.9185 47.4901 71.1915 39.2931 71.1915C25.4531 71.1915 24.8591 72.1065 30.5651 84.6275C35.1151 94.6135 34.6881 95.4775 24.3571 97.1695C15.6701 98.5925 12.0621 100.329 12.0621 103.085C12.0621 104.101 14.3121 108.019 17.0621 111.791C24.2141 121.601 23.9951 122.391 13.0621 126.237C0.883081 130.522 0.350081 132.834 9.56208 141.415C18.1561 149.421 18.1171 150.721 9.11708 156.159C5.29708 158.467 1.66208 160.969 1.04008 161.719C-1.45692 164.728 0.412081 167.532 8.06208 172.255C18.0861 178.444 18.2151 179.675 9.64908 187.406C-0.178919 196.277 0.469081 198.471 14.3541 203.32C23.4671 206.503 23.7421 207.874 17.1491 217.262C9.79108 227.739 10.3071 229.523 21.2011 231.277C31.3051 232.903 31.9481 233.111 33.0151 235.103C33.7971 236.565 33.2391 238.692 30.5431 244.526C24.7031 257.166 25.6881 258.719 39.0631 257.956C51.3201 257.257 51.2461 257.132 47.9891 272.974C46.8341 278.589 46.8741 279.433 48.3651 280.924C49.9221 282.481 50.6611 282.468 59.5001 280.73C72.0451 278.264 72.3831 278.521 71.4631 289.865C70.8751 297.107 71.0251 298.493 72.5781 300.21C74.9961 302.882 75.8911 302.763 85.1121 298.548C92.5491 295.148 93.2071 295.013 94.8921 296.538C96.0591 297.594 97.1621 301.029 98.0091 306.239C99.2341 313.785 100.849 317.192 103.199 317.192C104.722 317.192 108.038 315.255 113.856 310.966C121.51 305.325 122.72 305.836 126.831 316.443C131.495 328.477 132.893 328.79 141.929 319.824C145.646 316.136 149.489 313.193 150.587 313.194C151.945 313.196 153.811 315.245 156.562 319.759C163.969 331.911 166.168 332.036 173.265 320.702C176.638 315.316 178.549 313.192 180.024 313.192C181.26 313.192 184.591 315.844 188.384 319.847C193.857 325.623 195.032 326.416 197.28 325.852C199.358 325.331 200.457 323.765 202.827 317.947C204.452 313.957 206.056 309.904 206.391 308.942C207.41 306.01 210.74 306.95 218.537 312.37C225.118 316.945 226.266 317.42 228.395 316.45C230.387 315.542 231.011 314.166 231.992 308.522C233.887 297.618 233.99 297.301 235.973 296.239C237.435 295.457 239.562 296.015 245.396 298.711C257.876 304.477 259.28 303.618 258.989 290.388C258.881 285.465 259.131 280.89 259.544 280.221C260.36 278.9 263.59 279.132 273.759 281.24C283.708 283.303 284.452 281.717 280.933 265.947C279.178 258.081 279.779 257.615 291.157 258.027C304.486 258.511 305.508 256.809 299.631 243.913C295.229 234.254 295.707 233.452 306.941 231.653C319.965 229.568 320.759 227.68 313.062 217.097C306.007 207.397 306.118 207.035 317.483 202.758C321.29 201.325 325.002 199.656 325.733 199.05C328.452 196.794 327.083 193.655 320.562 187.192C316.987 183.649 314.062 180.011 314.062 179.108C314.062 178.146 317.378 175.355 322.062 172.374C328.282 168.415 330.059 166.771 330.047 164.987C330.025 161.733 329.421 161.123 321.312 156.165C316.034 152.938 314.062 151.163 314.062 149.64C314.062 148.318 316.477 145.414 320.617 141.756C326.371 136.673 327.135 135.585 326.867 132.851C326.581 129.927 326.044 129.543 318.107 126.588C306.697 122.341 306.337 121.343 312.937 112.269C315.756 108.394 318.062 104.385 318.062 103.362C318.062 101.065 315.026 98.1915 312.599 98.1915C311.605 98.1915 307.996 97.6765 304.577 97.0465C295.914 95.4505 295.466 94.3345 299.661 84.8225C305.207 72.2475 304.574 71.1915 291.484 71.1915C279.436 71.1915 279.283 71.0065 281.65 59.2975C284.218 46.5905 283.076 45.5935 269.541 48.7325C259.31 51.1055 259.062 50.8825 259.062 39.3245C259.062 25.5945 257.674 24.7475 244.783 30.6225C235.162 35.0065 234.417 34.5585 232.447 23.2065C230.186 10.1775 228.689 9.56452 217.736 17.1785C208.44 23.6415 207.417 23.3645 203.687 13.3845C202.106 9.15352 200.363 5.12952 199.815 4.44152C197.699 1.78952 194.459 3.23752 188.062 9.69152C184.519 13.2665 180.835 16.1915 179.876 16.1915C178.791 16.1915 176.195 13.1695 173.001 8.19152C167.655 -0.14248 165.065 -1.66848 161.8 1.59652ZM170.985 31.7805C175.165 35.2975 175.367 41.6135 171.426 45.5555C165.565 51.4155 155.062 47.0095 155.062 38.6915C155.062 35.9865 155.821 34.2785 157.985 32.1145C161.816 28.2835 166.681 28.1585 170.985 31.7805ZM151.562 54.1915C159.769 62.4375 160.845 63.1915 164.398 63.1915C167.825 63.1915 169.105 62.3985 175.419 56.3665C185.697 46.5445 187.298 45.1915 188.639 45.1915C192.153 45.1915 208.839 50.9185 217.562 55.1185C235.285 63.6535 250.054 75.6965 261.504 90.9525C271.322 104.035 271.099 101.786 264.131 117.536C260.793 125.081 258.062 132.543 258.062 134.118C258.062 138.246 261.176 140.718 273.086 146.042C278.848 148.618 284.125 151.082 284.812 151.518C285.675 152.065 286.062 155.387 286.062 162.251V172.192H279.207H272.352L271.768 179.163C270.982 188.537 268.92 192.598 263.653 195.148C258.54 197.623 253.064 197.761 248.37 195.534C244.476 193.686 243.817 192.506 241.512 183.252C239.226 174.07 236.589 169.483 229.878 163.016L223.987 157.339L228.275 154.384C234.126 150.351 242.345 141.479 245.194 136.119C247.164 132.414 247.547 130.224 247.546 122.692C247.544 114.729 247.214 113.064 244.683 108.238C241.021 101.259 233.141 93.5755 225.429 89.4665C213.775 83.2575 213.305 83.2225 141.229 83.2065C89.4171 83.1945 75.9801 82.9325 76.3021 81.9415C76.9991 79.8005 93.2051 66.2955 100.761 61.5595C109.864 55.8545 123.38 49.8925 133.062 47.3115C137.187 46.2125 141.021 45.2855 141.583 45.2525C142.144 45.2185 146.635 49.2415 151.562 54.1915ZM51.3781 118.309C54.9021 120.111 57.0161 123.438 57.0401 127.219C57.0671 131.548 55.1021 134.518 51.1211 136.167C45.0091 138.699 38.0621 134.18 38.0621 127.672C38.0621 123.101 39.3891 120.622 42.8371 118.751C46.1481 116.954 48.4921 116.833 51.3781 118.309ZM286.467 119.331C287.841 119.957 289.692 121.999 290.579 123.869C295.189 133.583 282.657 141.941 274.985 134.269C267.134 126.417 276.182 114.645 286.467 119.331ZM83.0621 157.692V196.192H66.1211C56.8031 196.192 48.9691 195.851 48.7111 195.434C46.2301 191.418 43.3811 164.799 44.4861 155.952L45.1761 150.429L55.8691 145.731C61.7501 143.147 67.5751 140.091 68.8121 138.938C71.6391 136.306 71.7331 131.888 69.0841 126.051C66.0081 119.273 66.0791 119.192 75.0621 119.192H83.0621V157.692ZM183.29 121.378C192.87 124.249 196.387 133.216 190.031 138.565C185.294 142.55 181.038 143.18 158.812 143.186L138.062 143.192V131.692V120.192H158.696C171.721 120.192 180.79 120.629 183.29 121.378ZM177.864 177.993C184.279 181.412 187.352 187.034 189.961 200.129C191.167 206.186 192.799 213.31 193.586 215.962C195.634 222.856 200.603 229.839 205.508 232.713C209.719 235.181 209.854 235.192 235.957 235.192C265.656 235.192 263.648 234.349 255.528 243.412L251.494 247.914L239.667 245.443C222.664 241.891 221.669 242.602 217.649 261.191C216.16 268.077 214.546 273.096 213.6 273.788C211.274 275.489 197.655 279.804 189.024 281.575C166.648 286.167 142.844 284.045 120.812 275.495C117.099 274.055 114.062 272.729 114.062 272.55C114.062 272.371 112.917 266.704 111.518 259.958C107.816 242.105 106.408 241.225 88.0151 245.272L78.5621 247.352L73.2311 241.522L67.9011 235.692L118.231 235.192L168.562 234.692V216.692V198.692L153.312 198.416L138.062 198.14V186.585V175.03L155.812 175.365C172.037 175.672 173.932 175.898 177.864 177.993ZM98.9861 258.661C106.124 265.8 97.5771 278.133 88.1871 274.244C85.0931 272.962 82.0621 268.483 82.0621 265.192C82.0621 262.268 84.9041 257.599 87.4821 256.289C90.6321 254.688 96.1501 255.826 98.9861 258.661ZM244.139 259.115C246.303 261.279 247.062 262.987 247.062 265.692C247.062 270.726 242.639 275.192 237.655 275.192C232.4 275.192 227.862 270.848 227.862 265.817C227.862 257.077 237.948 252.924 244.139 259.115Z" fill="black"/>
</svg>
