<svg width="312" height="312" viewBox="0 0 312 312" fill="none" xmlns="http://www.w3.org/2000/svg">
<path d="M285.987 219.497C285.978 219.483 285.969 219.473 285.958 219.46C286.415 217.721 286.887 215.993 287.287 214.211C304.44 137.837 262.577 47.5425 191.736 0C222.78 47.0324 236.506 103.999 224.311 153.818C223.223 158.262 221.916 162.526 220.47 166.671C218.902 165.52 216.926 164.212 214.272 162.577C214.272 162.577 143.804 113.952 67.4284 27.9462C65.4244 25.6886 108.155 96.2018 156.649 153.46C133.802 139.13 70.129 87.3559 29.8199 46.1248C34.7722 55.355 40.6626 64.2429 47.1375 72.7995C80.7991 120.508 124.698 179.374 177.291 224.576C140.339 249.848 88.1243 251.813 36.1368 224.602C23.2782 217.867 11.1899 209.742 0 200.509C22.0062 239.847 55.8989 273.788 97.1495 293.602C146.342 317.228 195.261 315.626 231.696 293.989L231.667 294.036C231.834 293.918 232.045 293.79 232.218 293.671C233.714 292.772 235.199 291.857 236.651 290.89C254.157 280.735 288.733 270.433 307.292 310.789C311.837 320.665 321.496 268.325 285.987 219.497Z" fill="white"/>
</svg>
